<?xml version="1.0" encoding="utf-8"?>
<!-- Generator: Adobe Illustrator 27.2.0, SVG Export Plug-In . SVG Version: 6.00 Build 0)  -->
<svg version="1.1" id="Layer_1" xmlns="http://www.w3.org/2000/svg" xmlns:xlink="http://www.w3.org/1999/xlink" x="0px" y="0px"
	 viewBox="0 0 589.6 273.4" style="enable-background:new 0 0 589.6 273.4;" xml:space="preserve">
<style type="text/css">
	.st0{fill:#25205B;}
	.st1{fill:#2075BC;}
</style>
<g>
	<path class="st0" d="M278,103.9l-48.2,68.1L127.7,21.3H41.5l142.2,205.3c4.9,7.2,11,13.3,18.1,18.1c7.1,4.9,16,7.3,26.6,7.3
		c10.9,0,19.9-2.6,27.1-7.8c7.3-5.2,13.3-11.1,18.3-17.6l86.9-122.8H278z"/>
	<path class="st1" d="M537.7,148.9c-6.9-8.6-15.3-14.4-25.3-17.3c3.9-1.4,7.6-3.3,11.4-5.9c3.7-2.6,7-5.9,9.8-9.9
		c2.8-4,5.1-8.5,7-13.8c1.8-5.2,2.7-11.2,2.7-18c0-10.4-2.1-19.5-6.3-27.3c-4.2-7.8-10.2-14.4-18-19.7c-7.8-5.3-17.2-9.3-28.1-11.9
		c-11-2.6-23.2-3.9-36.8-3.9H448H237.9v0h-81.7l74.1,109.2l35.6-50.3h140.5l-0.1,0.1h50.9c5,0,9.5,1,13.6,3
		c4.1,2.1,6.1,5.9,6.1,11.5c0,5.9-2,9.9-5.9,12.1c-4,2.1-8.5,3.2-13.8,3.2h-72l-34.4,48.5h105.4c7.7,0,13.2,1.3,16.6,3.9
		c3.4,2.6,5.1,6.4,5.1,11.4c0,5.2-1.7,9.1-5.1,11.9c-3.4,2.7-9,4.1-16.6,4.1H328.7l-36,50.9c-2,2.6-4.1,5.1-6.3,7.5h169.4
		c17.9,0,32.8-1.7,44.6-5.1c11.9-3.4,21.3-8.1,28.4-14c7-5.8,12-12.8,14.9-20.8c3-8.1,4.4-16.8,4.4-26.3
		C548.1,168.6,544.7,157.5,537.7,148.9z"/>
</g>
</svg>
