<?xml version="1.0" encoding="utf-8"?>
<!-- Generator: Adobe Illustrator 27.2.0, SVG Export Plug-In . SVG Version: 6.00 Build 0)  -->
<svg version="1.1" id="Layer_1" xmlns="http://www.w3.org/2000/svg" xmlns:xlink="http://www.w3.org/1999/xlink" x="0px" y="0px"
	 viewBox="0 0 1939.1 273.4" style="enable-background:new 0 0 1939.1 273.4;" xml:space="preserve">
<style type="text/css">
	.st0{fill:#25205B;}
	.st1{fill:#2075BC;}
</style>
<g>
	<g>
		<path class="st0" d="M275.2,105.8l-53.5,75.6L108.4,14.2H12.7l157.9,227.9c5.5,8,12.2,14.8,20.1,20.1c7.9,5.4,17.7,8.1,29.6,8.1
			c12.1,0,22.1-2.9,30.1-8.7c8.1-5.8,14.8-12.3,20.4-19.6l96.4-136.3H275.2z"/>
		<path class="st1" d="M563.6,155.8c-7.6-9.5-17-16-28-19.2c4.3-1.5,8.5-3.7,12.6-6.6c4.1-2.9,7.8-6.5,10.9-10.9
			c3.1-4.4,5.7-9.5,7.7-15.3c2-5.8,3-12.4,3-19.9c0-11.6-2.3-21.7-7-30.3c-4.7-8.6-11.3-16-20-21.8c-8.6-5.9-19-10.3-31.2-13.2
			c-12.2-2.9-25.8-4.3-40.9-4.3H464H230.7v0H140l82.3,121.3l39.5-55.8h156l-0.1,0.1h56.5c5.5,0,10.6,1.1,15.1,3.4
			c4.6,2.3,6.8,6.5,6.8,12.8c0,6.5-2.2,11-6.6,13.4c-4.4,2.4-9.5,3.6-15.3,3.6h-79.9l-38.1,53.9h117c8.5,0,14.7,1.4,18.5,4.3
			c3.8,2.9,5.7,7.1,5.7,12.7c0,5.8-1.9,10.2-5.7,13.2c-3.8,3-9.9,4.5-18.5,4.5H331.6l-40,56.5c-2.2,2.9-4.5,5.7-7,8.3h188.1
			c19.8,0,36.4-1.9,49.5-5.7c13.2-3.8,23.7-8.9,31.5-15.5c7.7-6.5,13.3-14.2,16.5-23.1c3.3-8.9,4.9-18.7,4.9-29.2
			C575.1,177.7,571.3,165.4,563.6,155.8z"/>
	</g>
	<g>
		<path class="st0" d="M704.8,42.1h29.8l-62.9,134.8h-12.6L596.4,42.1H626l39.4,87.9L704.8,42.1z"/>
		<path class="st0" d="M881.1,109.6c0,38-31.9,68.8-71.7,68.8c-39.6,0-71.7-30.8-71.7-68.8s32.1-68.8,71.7-68.8
			C849.1,40.8,881.1,71.6,881.1,109.6z M853.1,109.6c0-23.7-19.7-43.2-43.8-43.2c-24.1,0-43.6,19.5-43.6,43.2
			c0,23.9,19.5,43.2,43.6,43.2C833.4,152.8,853.1,133.5,853.1,109.6z"/>
		<path class="st0" d="M1000.5,154v22.9h-96.7V42.1h27.3V154H1000.5z"/>
		<path class="st0" d="M1109.5,149.6h-60.2l-12,27.3h-28.9l64.2-134.8h13.6l64.4,134.8h-28.9L1109.5,149.6z M1059,126.8h40.7
			l-20.5-44.5L1059,126.8z"/>
		<path class="st0" d="M1255.7,65.9h-43v111.1h-27.5V65.9h-42.8V42.1h113.4V65.9z"/>
		<path class="st0" d="M1303.9,176.9h-27.5V42.1h27.5V176.9z"/>
		<path class="st0" d="M1428.9,154v22.9h-96.7V42.1h27.3V154H1428.9z"/>
		<path class="st0" d="M1588.6,91.9c21.4,2.9,36.3,21.2,36.3,42.4c0,22.4-14.1,42.6-40.7,42.6H1510V42.1h59.3
			c16.1,0,29.2,13.2,29.2,29.8C1598.5,79.6,1594.9,88,1588.6,91.9z M1536.6,89.2h24.7c9.2,0,12.8-6.1,12.8-11.7
			c0-6.5-5.4-11.7-14.9-11.7h-22.6V89.2z M1569.2,153.2c18.9,0,26.8-9.2,26.8-21.8c0-10.9-8-22-26.6-22h-32.7v43.8H1569.2z"/>
		<path class="st0" d="M1783.2,109.6c0,38-31.9,68.8-71.7,68.8c-39.6,0-71.7-30.8-71.7-68.8s32.1-68.8,71.7-68.8
			C1751.2,40.8,1783.2,71.6,1783.2,109.6z M1755.3,109.6c0-23.7-19.7-43.2-43.8-43.2c-24.1,0-43.6,19.5-43.6,43.2
			c0,23.9,19.5,43.2,43.6,43.2C1735.6,152.8,1755.3,133.5,1755.3,109.6z"/>
		<path class="st0" d="M1906.3,65.9h-43v111.1h-27.5V65.9h-42.8V42.1h113.4V65.9z"/>
		<path class="st0" d="M800.7,254l-5.1-11.4h-23.3l-5,11.4h-5.8l20.9-45.3h3l21,45.3H800.7z M783.9,216.2l-9.6,21.9h19.3
			L783.9,216.2z"/>
		<path class="st0" d="M871.6,208.7v27.1c0,5.3-1.7,9.8-5.1,13.3c-3.3,3.5-8,5.3-14,5.3c-6,0-10.7-1.7-14-5.2
			c-3.3-3.5-4.9-8-4.9-13.4v-27.1h5.4v25.9c0,9.1,4.8,14.7,13.6,14.7c8.8,0,13.7-5.7,13.7-14.7v-25.9H871.6z"/>
		<path class="st0" d="M937.1,208.7v4.7h-15.5V254h-5.6v-40.6h-15.5v-4.7H937.1z"/>
		<path class="st0" d="M1004.7,215.1c4.7,4.5,7,9.9,7,16.2c0,6.4-2.3,11.8-7,16.2c-4.7,4.5-10.3,6.7-17,6.7
			c-6.6,0-12.2-2.2-16.9-6.7c-4.7-4.5-7-9.9-7-16.2c0-6.4,2.3-11.8,7-16.2c4.7-4.5,10.3-6.7,16.9-6.7
			C994.4,208.4,1000,210.6,1004.7,215.1z M987.8,249.3c5.1,0,9.4-1.7,12.9-5.2c3.6-3.5,5.4-7.8,5.4-12.7c0-4.9-1.8-9.2-5.4-12.7
			c-3.5-3.5-7.8-5.3-12.9-5.3c-5.1,0-9.4,1.7-13,5.3c-3.5,3.5-5.3,7.7-5.3,12.7c0,4.9,1.8,9.1,5.3,12.7
			C978.4,247.6,982.7,249.3,987.8,249.3z"/>
		<path class="st0" d="M1116.8,208.7v4.7h-15.5V254h-5.6v-40.6h-15.5v-4.7H1116.8z"/>
		<path class="st0" d="M1175.5,254l-10.3-14c-1.3,0.1-2.3,0.1-3,0.1h-11V254h-5.5v-45.3h18.6c5.8,0,10,1.4,12.7,4.3
			c2.6,2.9,4,6.6,4,11c0,7.8-3.3,12.8-10.1,14.9l11.4,15.1H1175.5z M1151.2,213.4v22.2h10.9c8.4,0,13.1-3.9,13.1-11.2
			c0-6.4-3.6-10.9-11.6-10.9H1151.2z"/>
		<path class="st0" d="M1245.2,254l-5.1-11.4h-23.3l-5,11.4h-5.8l20.9-45.3h3l21,45.3H1245.2z M1228.5,216.2l-9.6,21.9h19.3
			L1228.5,216.2z"/>
		<path class="st0" d="M1310.5,247.3c-4.2,4.5-9.2,6.7-15,6.7h-17.2v-45.3h15.7c6.3,0,11.7,2.2,16.1,6.7c4.4,4.4,6.7,9.8,6.7,16
			C1316.8,237.5,1314.7,242.8,1310.5,247.3z M1283.6,249.1h11.4c4.4,0,8.3-1.7,11.5-5.3c3.2-3.5,4.8-7.7,4.8-12.4
			c0-4.9-1.7-9.1-5.1-12.5c-3.4-3.5-7.5-5.2-12.3-5.2h-10.4V249.1z"/>
		<path class="st0" d="M1352,208.7V254h-5.6v-45.3H1352z"/>
		<path class="st0" d="M1416.9,208.7h5.5V254h-2.9l-30.3-34.9V254h-5.5v-45.3h2.9l30.4,34.9V208.7z"/>
		<path class="st0" d="M1474.7,232.3h20.7v15.5c-5.5,4.4-12,6.6-19.6,6.6c-6.6,0-12.3-2.2-17-6.7c-4.7-4.5-7-9.9-7-16.2
			c0-6.4,2.3-11.8,7-16.2c4.7-4.5,10.3-6.7,17-6.7c7.3,0,13.2,2.2,17.9,6.5l-3.5,3.8c-3.8-3.5-8.6-5.2-14.5-5.2
			c-5.1,0-9.4,1.7-13,5.3c-3.6,3.5-5.4,7.7-5.4,12.7c0,5.1,1.8,9.3,5.3,12.8c3.6,3.5,8,5.3,13,5.3c5.4,0,10.1-1.5,14.1-4.4v-8.2
			h-15.2V232.3z"/>
		<path class="st0" d="M1591.3,225.2c3.7,0.4,6.6,2,8.9,4.8c2.2,2.8,3.3,6,3.3,9.7c0,4-1.2,7.4-3.7,10.1c-2.4,2.8-5.7,4.2-10,4.2
			h-23.1v-45.3h17.9c2.8,0,5.1,0.9,7.1,2.6c2,1.7,3,3.9,3,6.6C1594.7,221.1,1593.6,223.6,1591.3,225.2z M1572.1,213.4v11.3h12.3
			c3.5,0,5.3-2.8,5.3-5.6c0-3.3-2.9-5.7-6.8-5.7H1572.1z M1572.2,249.3h15.1c6.9,0,10.5-4.3,10.5-10.1c0-2.8-0.9-5.2-2.8-7.2
			c-1.9-2.1-4.4-3.1-7.7-3.1h-15.2V249.3z"/>
		<path class="st0" d="M1671.2,215.1c4.7,4.5,7,9.9,7,16.2c0,6.4-2.3,11.8-7,16.2c-4.7,4.5-10.3,6.7-17,6.7
			c-6.6,0-12.2-2.2-16.9-6.7c-4.7-4.5-7-9.9-7-16.2c0-6.4,2.3-11.8,7-16.2c4.7-4.5,10.3-6.7,16.9-6.7
			C1660.9,208.4,1666.5,210.6,1671.2,215.1z M1654.3,249.3c5.1,0,9.4-1.7,12.9-5.2c3.6-3.5,5.4-7.8,5.4-12.7c0-4.9-1.8-9.2-5.4-12.7
			c-3.5-3.5-7.8-5.3-12.9-5.3c-5.1,0-9.4,1.7-13,5.3c-3.5,3.5-5.3,7.7-5.3,12.7c0,4.9,1.8,9.1,5.3,12.7
			C1644.9,247.6,1649.2,249.3,1654.3,249.3z"/>
		<path class="st0" d="M1741.9,208.7v4.7h-15.5V254h-5.6v-40.6h-15.5v-4.7H1741.9z"/>
	</g>
</g>
</svg>
