<?xml version="1.0" encoding="utf-8"?>
<!-- Generator: Adobe Illustrator 27.2.0, SVG Export Plug-In . SVG Version: 6.00 Build 0)  -->
<svg version="1.1" id="Layer_1" xmlns="http://www.w3.org/2000/svg" xmlns:xlink="http://www.w3.org/1999/xlink" x="0px" y="0px"
	 viewBox="0 0 589.6 273.4" style="enable-background:new 0 0 589.6 273.4;" xml:space="preserve">
<style type="text/css">
	.st0{fill:#FFFFFF;}
</style>
<g>
	<path class="st0" d="M275.2,100.8l-53.5,75.6L108.4,9.2H12.7l157.9,227.9c5.5,8,12.2,14.8,20.1,20.1c7.9,5.4,17.7,8.1,29.6,8.1
		c12.1,0,22.1-2.9,30.1-8.7c8.1-5.8,14.8-12.3,20.4-19.6l96.4-136.3H275.2z"/>
	<path class="st0" d="M563.6,150.8c-7.6-9.5-17-16-28-19.2c4.3-1.5,8.5-3.7,12.6-6.6c4.1-2.9,7.8-6.5,10.9-10.9
		c3.1-4.4,5.7-9.5,7.7-15.3c2-5.8,3-12.4,3-19.9c0-11.6-2.3-21.7-7-30.3c-4.7-8.6-11.3-16-20-21.8c-8.6-5.9-19-10.3-31.2-13.2
		c-12.2-2.9-25.8-4.3-40.9-4.3H464H230.7v0H140l82.3,121.3l39.5-55.8h156l-0.1,0.1h56.5c5.5,0,10.6,1.1,15.1,3.4
		c4.6,2.3,6.8,6.5,6.8,12.8c0,6.5-2.2,11-6.6,13.4c-4.4,2.4-9.5,3.6-15.3,3.6h-79.9l-38.1,53.9h117c8.5,0,14.7,1.4,18.5,4.3
		c3.8,2.9,5.7,7.1,5.7,12.7c0,5.8-1.9,10.2-5.7,13.2c-3.8,3-9.9,4.5-18.5,4.5H331.6l-40,56.5c-2.2,2.9-4.5,5.7-7,8.3h188.1
		c19.8,0,36.4-1.9,49.5-5.7c13.2-3.8,23.7-8.9,31.5-15.5c7.7-6.5,13.3-14.2,16.5-23.1c3.3-8.9,4.9-18.7,4.9-29.2
		C575.1,172.7,571.3,160.4,563.6,150.8z"/>
</g>
</svg>
